<?xml version="1.0" encoding="utf-8"?>
<svg xmlns="http://www.w3.org/2000/svg" viewBox="0 0 256 256" xmlns:bx="https://boxy-svg.com">
  <path d="M 0 128 C 0 57.308 57.308 0 128 0 C 181.718 0 227.707 33.091 246.696 80 L 201.769 80 C 186.067 55.918 158.892 40 128 40 C 79.399 40 40 79.399 40 128 C 40 158.892 55.918 186.067 80 201.769 L 80 246.696 C 33.091 227.707 0 181.718 0 128 Z" style="fill: rgb(55, 78, 205);"/>
  <defs>
    <bx:grid x="0" y="0" width="16" height="16" divisions="4"/>
    <bx:export>
      <bx:file format="svg"/>
    </bx:export>
  </defs>
  <path d="M 248 126.4 C 248 193.558 193.555 248 126.4 248 C 115.901 248 105.716 246.67 96 244.17 L 96 204.303 C 105.421 207.981 115.673 210 126.4 210 C 172.57 210 210 172.571 210 126.4 C 210 115.675 207.98 105.422 204.3 96 L 244.168 96 C 246.669 105.716 248 115.902 248 126.4 Z" style="fill: none; stroke-linejoin: round; stroke-dashoffset: 100px; stroke-dasharray: 8; stroke-width: 10px; stroke: rgb(55, 78, 205);"/>
</svg>